# xmcd
#
# Track frame offsets:
#	150
#	19420
#	48285
#	71807
#	90020
#	118600
#	140510
#	163955
#	188700
#	217170
#
# Disc length: 3175 seconds
#
# Revision: 2
# Processed by: cddbd v1.5.2PL0 Copyright (c) Steve Scherf et al.
# Submitted via: EZCDAudioConverter 8.0.2.1
#
DISCID=8f0c650a
DTITLE=Thanh Tuyền - Từ Nủa Vòng Trái Đất
DYEAR=1988
DGENRE=Miscellaneous
TTITLE0=Cô hàng xóm
TTITLE1=Từ Nủa Vòng Trái Đất
TTITLE2=Vùng trời ngày đó
TTITLE3=Người tình và quê hương
TTITLE4=Hoa nở về đêm
TTITLE5=Anh biết em đi
TTITLE6=Xin gọi nhau là cố nhân
TTITLE7=Rừng lá thấp
TTITLE8=Tôi bán đường tơ
TTITLE9=Phố đêm
EXTD=
EXTT0=
EXTT1=
EXTT2=
EXTT3=
EXTT4=
EXTT5=
EXTT6=
EXTT7=
EXTT8=
EXTT9=
PLAYORDER=
